<svg width="282" height="282" xmlns="http://www.w3.org/2000/svg" xmlns:xlink="http://www.w3.org/1999/xlink"><defs><path d="M94.103 0C134.447 0 144 9.553 144 49.897v44.206C144 134.447 134.447 144 94.103 144H49.897C9.553 144 0 134.447 0 94.103V49.897C0 9.553 9.553 0 49.897 0h44.206z" id="b"/><filter x="-86.8%" y="-59%" width="273.6%" height="273.6%" filterUnits="objectBoundingBox" id="a"><feOffset dy="40" in="SourceAlpha" result="shadowOffsetOuter1"/><feGaussianBlur stdDeviation="35" in="shadowOffsetOuter1" result="shadowBlurOuter1"/><feColorMatrix values="0 0 0 0 0.250980392 0 0 0 0 0.450980392 0 0 0 0 0.670588235 0 0 0 0.24 0" in="shadowBlurOuter1"/></filter></defs><g fill="none" fill-rule="evenodd"><g transform="translate(69 29)"><use fill="#000" filter="url(#a)" xlink:href="#b"/><use fill="#FFF" xlink:href="#b"/></g><path d="M162.64 70h-37.28C117.475 70 111 76.366 111 84.36v37.28c0 7.918 6.442 14.36 14.36 14.36H144c4.463 0 8.827-1.808 11.971-4.96l16.072-16.067.002-.001A17.07 17.07 0 0 0 177 103V84.36c0-7.918-6.442-14.36-14.36-14.36zm-9.405 58.308c-.389.39-.802.753-1.236 1.088a8.13 8.13 0 0 0 .148-1.54v-6.216c0-5.786 4.707-10.493 10.493-10.493h6.213c.527 0 1.043-.052 1.543-.148-.336.435-.699.85-1.09 1.241l-16.07 16.068z" fill="#4680C2" fill-rule="nonzero"/></g></svg>