<?xml version="1.0" encoding="UTF-8"?>
<svg width="144px" height="144px" viewBox="0 0 144 144" version="1.1" xmlns="http://www.w3.org/2000/svg" xmlns:xlink="http://www.w3.org/1999/xlink">
    <!-- Generator: Sketch 51.3 (57544) - http://www.bohemiancoding.com/sketch -->
    <title>assets/icon-smartphone copy</title>
    <desc>Created with Sketch.</desc>
    <defs></defs>
    <g id="current" stroke="none" stroke-width="1" fill="none" fill-rule="evenodd">
        <g id="assets/icon-smartphone-copy">
            <path d="M94.1030346,0 C134.447424,0 144,9.55257586 144,49.8969654 L144,94.1030346 C144,134.447424 134.447424,144 94.1030346,144 L49.8969654,144 C9.55257586,144 0,134.447424 0,94.1030346 L0,49.8969654 C0,9.55257586 9.55257586,0 49.8969654,0 L94.1030346,0 Z" id="Path-Copy-6" fill="#FFFFFF"></path>
            <g id="assets/smartphone" transform="translate(49.000000, 35.000000)" fill-rule="nonzero">
                <path d="M45,69.1624106 L45,5.82226762 C45,2.62002043 42.4050204,0 39.1994573,0 L5.80054274,0 C2.61024423,0 0,2.60469867 0,5.82226762 L0,69.1777324 C0,72.3799796 2.59497965,75 5.80054274,75 L39.1994573,75 C42.3897558,74.9846782 45,72.3799796 45,69.1624106 Z" id="Shape" fill="#4680C2"></path>
                <path d="M5.80054274,3.75383044 L39.1994573,3.75383044 C40.3290366,3.75383044 41.2601764,4.67313585 41.2601764,5.82226762 L41.2601764,9.74463739 L3.73982361,9.74463739 L3.73982361,5.82226762 C3.73982361,4.67313585 4.67096336,3.75383044 5.80054274,3.75383044 Z" id="Path" fill="#FFFFFF"></path>
                <path d="M3.73982361,69.1624106 L3.73982361,8.86210419 L41.2449118,8.86210419 L41.2449118,69.1624106 C41.2449118,70.2962206 40.3290366,71.2308478 39.1841927,71.2308478 L5.80054274,71.2308478 C4.67096336,71.2308478 3.73982361,70.3115424 3.73982361,69.1624106 Z" id="Path" fill="#FFFFFF"></path>
                <path d="M28.8546433,1 L16.1453567,1 C14.4064603,1 13,2.34146341 13,4 C13,5.65853659 14.4064603,7 16.1453567,7 L28.8546433,7 C30.5935397,7 32,5.65853659 32,4 C32,2.34146341 30.5935397,1 28.8546433,1 Z" id="Path" fill="#4680C2"></path>
            </g>
        </g>
    </g>
</svg>